<?xml version="1.0" standalone="no"?><!DOCTYPE svg PUBLIC "-//W3C//DTD SVG 1.1//EN" "http://www.w3.org/Graphics/SVG/1.1/DTD/svg11.dtd"><svg t="1603357476274" class="icon" viewBox="0 0 1024 1024" version="1.1" xmlns="http://www.w3.org/2000/svg" p-id="8033" xmlns:xlink="http://www.w3.org/1999/xlink" width="200" height="200"><defs><style type="text/css"></style></defs><path d="M815.43 40H200.06C91.48 40 3.16 128.33 3.16 236.9v396.37c0 108.57 88.32 196.9 196.9 196.9h268.49v76.27H269.77v78.41h475.96v-78.41H546.96v-76.27h268.47c108.58 0 196.9-88.33 196.9-196.9V236.9c0-108.57-88.32-196.9-196.9-196.9z m118.49 593.27c0 65.33-53.14 118.49-118.49 118.49H200.06c-65.34 0-118.49-53.15-118.49-118.49V236.9c0-65.33 53.14-118.49 118.49-118.49h615.37c65.34 0 118.49 53.15 118.49 118.49v396.37z" fill="#bfbfbf" p-id="8034"></path><path d="M247.69 286.38h520.12v78.41H247.69zM247.69 505.38h355.86v78.41H247.69z" fill="#bfbfbf" p-id="8035"></path></svg>