<?xml version="1.0" standalone="no"?><!DOCTYPE svg PUBLIC "-//W3C//DTD SVG 1.1//EN" "http://www.w3.org/Graphics/SVG/1.1/DTD/svg11.dtd"><svg t="1603356251166" class="icon" viewBox="0 0 1024 1024" version="1.1" xmlns="http://www.w3.org/2000/svg" p-id="5611" xmlns:xlink="http://www.w3.org/1999/xlink" width="200" height="200"><defs><style type="text/css"></style></defs><path d="M695 709.1h-25.5c-2.8 0-5-2.2-5-5V63.9c0-2.8 2.2-5 5-5H695c24.9 0 45.2 20.3 45.2 45.2V664c-0.1 24.9-20.3 45.1-45.2 45.1z m-20.5-10H695c19.4 0 35.2-15.8 35.2-35.2V104c0-19.4-15.8-35.2-35.2-35.2h-20.5v630.3z" fill="#bfbfbf" p-id="5612"></path><path d="M669.5 704.1H393.4l17.3 190.3c2.4 35.6-25.8 65.8-61.5 65.8-34 0-61.6-27.6-61.6-61.6V63.9h381.9v640.2z" fill="#bfbfbf" p-id="5613"></path><path d="M349.2 965.2c-36.7 0-66.6-29.9-66.6-66.6V63.9c0-2.8 2.2-5 5-5h381.9c2.8 0 5 2.2 5 5v640.3c0 2.8-2.2 5-5 5H398.8L415.6 894v0.1c1.3 18.6-5 36.4-17.8 50-12.7 13.6-30 21.1-48.6 21.1zM292.6 68.9v829.8c0 31.2 25.4 56.6 56.6 56.6 15.9 0 30.5-6.4 41.4-18 10.8-11.6 16.2-26.6 15.1-42.4l-17.3-190.2c-0.1-1.4 0.3-2.8 1.3-3.8s2.3-1.6 3.7-1.6h271.1V68.9H292.6z" fill="#bfbfbf" p-id="5614"></path><path d="M669.5 709.2c-2.8 0-5-2.2-5-5v-0.1c0-2.8 2.2-5 5-5s5 2.2 5 5-2.2 5.1-5 5.1z" fill="#bfbfbf" p-id="5615"></path></svg>