<?xml version="1.0" standalone="no"?><!DOCTYPE svg PUBLIC "-//W3C//DTD SVG 1.1//EN" "http://www.w3.org/Graphics/SVG/1.1/DTD/svg11.dtd"><svg t="1603357012832" class="icon" viewBox="0 0 1024 1024" version="1.1" xmlns="http://www.w3.org/2000/svg" p-id="6235" xmlns:xlink="http://www.w3.org/1999/xlink" width="200" height="200"><defs><style type="text/css"></style></defs><path d="M337.6 333c-8.1-31.6-46.5-49-85.8-38.9-39.2 10.1-64.4 43.9-56.3 75.5 8.1 31.6 46.5 49 85.8 38.9 39.3-10 64.5-43.8 56.3-75.5z m-58.3 67.6c-33.7 8.7-66.7-6.3-73.7-33.5s14.7-56.2 48.4-64.9c33.7-8.7 66.7 6.3 73.7 33.5 7 27.1-14.7 56.2-48.4 64.9z" fill="#bfbfbf" p-id="6236"></path><path d="M205.589878 367.023129a50.8 63 75.547 1 0 122.01244-31.447804 50.8 63 75.547 1 0-122.01244 31.447804Z" fill="#bfbfbf" p-id="6237"></path><path d="M298.9 375.5c0.8-4-1.8-7.9-5.8-8.7-0.7-0.2-1.5-0.2-2.2-0.2 0 0-26.5 14.7-42.1 15.7l-2.2 0.7c-1.7 0.9-2.9 2.5-3.4 4.4-0.9 3.9 1.7 7.8 5.9 8.8 1.5 0.2 3.1 0.2 4.6-0.1 15.3-1.2 30-6.9 42.1-16.4 0.5-0.3 1-0.7 1.4-1.1l0.2-0.1c0.6-0.9 1.2-1.9 1.5-3z" fill="#bfbfbf" p-id="6238"></path><path d="M697.4 249l-6.4-24.3c-1.9-7.5-8.7-12.3-14.9-10.7l-339 100c-6.3 1.6-9.8 9.1-7.8 16.7l1 4c2 7.5 8.7 12.3 15 10.7l344.3-79.7c6.2-1.6 9.7-9.1 7.8-16.7z m-13.6 13.1l-333 77.1c-6.1 1.5-12.6 1.2-15.5-6.1 0 0-5-12.3 10.7-16l327.8-96.7c6.1-1.6 12.6 3.1 14.5 10.3l3.1 15.3c1.8 7.2-1.6 14.5-7.6 16.1z" fill="#bfbfbf" p-id="6239"></path><path d="M673.7 220L346 316.8c-15.6 3.7-10.7 16-10.7 16 2.9 7.4 9.5 7.7 15.5 6.1l333-77.1c6.1-1.6 9.4-8.8 7.5-16.1l-3.1-15.3c-1.9-7.3-8.4-11.9-14.5-10.4z" fill="#bfbfbf" p-id="6240"></path><path d="M628.9 269.8l-195.6 46.1c-1.3 0.3-2.6-0.5-2.9-1.8-0.3-1.3 0.5-2.6 1.8-2.9l195.2-47.7c1.3-0.3 2.6 0.5 2.9 1.8l0.4 1.5c0.3 1.3-0.5 2.6-1.8 3z" fill="#bfbfbf" p-id="6241"></path><path d="M424.2 545.7c-25.6-26.1-72.7-21.5-105.1 10.3-32.4 31.8-37.9 78.7-12.3 104.8 25.6 26.1 72.7 21.5 105.1-10.3 32.4-31.7 37.9-78.7 12.3-104.8z m-18.8 98.2c-27.9 27.3-68.3 31.3-90.3 8.8-22-22.4-17.3-62.8 10.6-90.1 27.9-27.3 68.3-31.3 90.3-8.8 22 22.4 17.3 62.8-10.6 90.1z" fill="#bfbfbf" p-id="6242"></path><path d="M315.127002 652.783301a56.9 70.6 45.547 1 0 100.792114-98.885741 56.9 70.6 45.547 1 0-100.792114 98.885741Z" fill="#bfbfbf" p-id="6243"></path><path d="M410.3 608.6c-1.5-4.3-6.2-6.7-10.5-5.2-0.8 0.2-1.6 0.6-2.3 1.1 0 0-17.5 29.1-32.1 38.8l-1.7 2c-1.1 1.8-1.4 4.1-0.8 6.1 1.3 4.3 6 6.6 10.6 5.2 1.6-0.6 3.1-1.5 4.4-2.7 14.2-9.8 25.2-23.5 31.7-39.5 0.3-0.6 0.6-1.2 0.7-1.9l0.1-0.2c0.3-1.2 0.3-2.5-0.1-3.7z" fill="#bfbfbf" p-id="6244"></path><path d="M726.2 262.6l-19.8-20c-6.1-6.2-15.3-7.1-20.5-2L413 527.6c-5.2 5.1-4.4 14.4 1.8 20.5l3.2 3.3c6.1 6.2 15.3 7 20.5 2L728 283.2c5.2-5.1 4.4-14.4-1.8-20.6z m-5.9 20.3L440.4 544.2c-5 4.9-11.5 8.3-18.5 2.7 0 0-11.7-9.2 1.4-21.5l263.9-277.5c5-4.9 13.9-4.1 19.8 1.9l11.6 13.1c5.9 6.1 6.7 15.1 1.7 20z" fill="#bfbfbf" p-id="6245"></path><path d="M687.1 247.7L423.2 525.3c-13.1 12.3-1.4 21.5-1.4 21.5 7 5.5 13.5 2.1 18.5-2.7l279.9-261.3c5-4.9 4.2-13.9-1.7-19.9l-11.6-13.1c-5.9-6.1-14.9-7-19.8-2.1z" fill="#bfbfbf" p-id="6246"></path><path d="M671.5 321.1l-164 154.3c-1.1 1-2.8 1-3.8-0.1s-1-2.8 0.1-3.8l162.7-155.7c1.1-1 2.8-1 3.8 0.1l1.2 1.3c1 1.1 1 2.8 0 3.9z" fill="#bfbfbf" p-id="6247"></path><path d="M535.5 693.7c-37-19.2-86.2 2.5-110 48.3-23.8 45.9-13.1 98.6 23.9 117.8 37 19.2 86.2-2.5 110-48.3 23.7-45.9 13.1-98.6-23.9-117.8z m14.4 112.9c-20.5 39.4-62.8 58-94.6 41.5-31.8-16.5-41-61.8-20.5-101.2 20.5-39.4 62.8-58 94.6-41.5 31.8 16.5 41 61.8 20.5 101.2z" fill="#bfbfbf" p-id="6248"></path><path d="M455.406879 848.101043a64.8 80.4 27.418 1 0 74.044971-142.737459 64.8 80.4 27.418 1 0-74.044971 142.737459Z" fill="#bfbfbf" p-id="6249"></path><path d="M542.8 766.7c-3.1-4.2-9-5-13.2-1.9-0.8 0.6-1.5 1.2-2.1 2 0 0-8.7 37.7-20.9 53.4l-1.2 2.7c-0.6 2.4-0.1 4.9 1.3 6.9 2.9 4.2 8.9 5 13.4 1.9 1.5-1.3 2.9-2.8 3.9-4.5 11.9-15.6 18.9-34.4 20.3-53.9 0.1-0.8 0.2-1.5 0.1-2.3v-0.3c-0.3-1.4-0.8-2.8-1.6-4z" fill="#bfbfbf" p-id="6250"></path><path d="M762 280.4l-28.6-14.6c-8.8-4.6-19.1-2.3-22.9 5.1L517 678.1c-3.8 7.3 0.4 17.1 9.2 21.6l4.7 2.4c8.8 4.5 19.1 2.2 22.9-5.1l217.4-395c3.8-7.3-0.4-17-9.2-21.6z m0.8 24.1L552.5 686.4c-3.7 7.1-9.6 13-19.1 9.5 0 0-15.9-5.8-6.1-23.7l187.2-393.8c3.6-7.1 13.6-9.3 22.1-4.9l17.2 10.1c8.7 4.4 12.7 13.8 9 20.9z" fill="#bfbfbf" p-id="6251"></path><path d="M714.4 278.2L527.1 672c-9.8 18 6.1 23.7 6.1 23.7 9.5 3.5 15.4-2.5 19.1-9.5l210.3-381.9c3.6-7.1-0.4-16.5-8.9-20.9l-17.2-10.1c-8.5-4.4-18.5-2.2-22.1 4.9z" fill="#bfbfbf" p-id="6252"></path><path d="M723.5 363.2L600.7 588.3c-0.8 1.5-2.7 2.1-4.2 1.3s-2.1-2.7-1.3-4.2l120.9-226.1c0.8-1.5 2.7-2.1 4.2-1.3l1.8 0.9c1.5 0.9 2.1 2.7 1.4 4.3z" fill="#bfbfbf" p-id="6253"></path><path d="M733.2 286.9c-6.1 0-11.1 5-11.1 11.1s5 11.1 11.1 11.1 11.1-5 11.1-11.1-5-11.1-11.1-11.1z m0 20.4c-5.1 0-9.3-4.2-9.3-9.3 0-5.1 4.2-9.3 9.3-9.3s9.3 4.2 9.3 9.3c0 5.1-4.2 9.3-9.3 9.3z" fill="#bfbfbf" p-id="6254"></path><path d="M733.2 298m-9.3 0a9.3 9.3 0 1 0 18.6 0 9.3 9.3 0 1 0-18.6 0Z" fill="#bfbfbf" p-id="6255"></path><path d="M695.9 261.8c-6.1 0-11.1 5-11.1 11.1s5 11.1 11.1 11.1 11.1-5 11.1-11.1c0-6.2-5-11.1-11.1-11.1z m0 20.3c-5.1 0-9.3-4.2-9.3-9.3 0-5.1 4.2-9.3 9.3-9.3s9.3 4.2 9.3 9.3c0 5.2-4.2 9.3-9.3 9.3z" fill="#bfbfbf" p-id="6256"></path><path d="M695.9 272.8m-9.3 0a9.3 9.3 0 1 0 18.6 0 9.3 9.3 0 1 0-18.6 0Z" fill="#bfbfbf" p-id="6257"></path><path d="M668.9 230.6c-6.1 0-11.1 5-11.1 11.1s5 11.1 11.1 11.1 11.1-5 11.1-11.1-5-11.1-11.1-11.1z m0 20.4c-5.1 0-9.3-4.2-9.3-9.3 0-5.1 4.2-9.3 9.3-9.3s9.3 4.2 9.3 9.3c0 5.1-4.2 9.3-9.3 9.3z" fill="#bfbfbf" p-id="6258"></path><path d="M668.9 241.7m-9.3 0a9.3 9.3 0 1 0 18.6 0 9.3 9.3 0 1 0-18.6 0Z" fill="#bfbfbf" p-id="6259"></path><path d="M789 193.7c-40.3-38.2-93-48-117.7-21.9-17.6 18.5-16.2 49.2 0.5 79.7l6.2-4c-12.5-25.9-12.6-50.4-1.5-65.9 22.7-24.1 68.5-14.5 105.6 20.8s48.2 80.8 25.4 104.9c-11.8 8.7-25.5 7.8-44.6 7.1l-5.2 7c20.9 3.7 47.5 1.5 59.7-11.3C842 284 829.3 231.9 789 193.7z" fill="#bfbfbf" p-id="6260"></path><path d="M742.6 301.7c-20.5-5.6-45.3-23-50.9-38.3l-5 5.1c7.6 18.4 26.7 33.1 52.3 38.9l3.6-5.7z" fill="#bfbfbf" p-id="6261"></path></svg>