<?xml version="1.0" standalone="no"?><!DOCTYPE svg PUBLIC "-//W3C//DTD SVG 1.1//EN" "http://www.w3.org/Graphics/SVG/1.1/DTD/svg11.dtd"><svg t="1603358505835" class="icon" viewBox="0 0 1038 1024" version="1.1" xmlns="http://www.w3.org/2000/svg" p-id="10531" xmlns:xlink="http://www.w3.org/1999/xlink" width="202.734375" height="200"><defs><style type="text/css"></style></defs><path d="M813.14499 548.365736h-9.327161c-12.487183 0-36.136379-10.805236-36.13638-34.913145s23.700164-38.78672 36.13638-38.786721c98.164551 0 170.18247-54.077149 170.18247-152.2417S902.135284 170.18247 803.817829 170.18247H247.603006c-12.487183 0-27.879548-24.362749-27.879548-36.849933s15.290429-36.849933 27.879548-36.849933h556.214823c124.616993 0 234.860983 76.452143 234.860982 225.890598 0 158.66368-113.964661 225.890598-220.844756 225.890598h-4.689065z" p-id="10532" fill="#bfbfbf"></path><path d="M132.517047 0a132.517047 132.517047 0 1 0 132.517048 132.517047A132.517047 132.517047 0 0 0 132.517047 0z m0 193.321985A60.906874 60.906874 0 1 1 193.321985 132.517047 61.416555 61.416555 0 0 1 132.517047 193.321985zM225.533821 475.634264h9.327162c12.487183 0 36.136379 10.805236 36.136379 34.913145s-23.700164 38.78672-36.136379 38.786721c-98.164551 0-170.18247 54.077149-170.18247 152.2417s72.017918 152.2417 170.18247 152.2417h556.214822c12.487183 0 27.879548 24.362749 27.879548 36.849933s-15.290429 36.849933-27.879548 36.849933H234.860983C110.24399 927.619332 0 851.167189 0 701.524862c0-158.66368 113.964661-225.890598 220.844756-225.890598h4.689065z" p-id="10533" fill="#bfbfbf"></path><path d="M906.2637 1024a132.517047 132.517047 0 1 0-132.517047-132.517047 132.517047 132.517047 0 0 0 132.517047 132.517047z m0-193.321985a60.906874 60.906874 0 1 1-60.906874 60.906874A61.416555 61.416555 0 0 1 906.2637 830.779951zM699.027425 511.413867a44.087402 44.087402 0 0 1 28.542134-41.335125l8.868448-3.414863-2.497437-9.225225a216.767309 216.767309 0 0 0-23.700164-57.237171l-5.096809-8.154895-8.715545 3.873575a44.546115 44.546115 0 0 1-18.19561 3.873575 44.240307 44.240307 0 0 1-40.264795-62.384948l3.873575-8.715544-8.205863-5.09681a217.939575 217.939575 0 0 0-57.237171-23.700164l-9.225225-2.344532-3.414862 8.868448a44.240307 44.240307 0 0 1-82.721219 0l-3.414862-8.868448-8.715544 2.599372a216.665373 216.665373 0 0 0-57.237171 23.700165l-8.154896 5.096809 3.873576 8.715544A44.189339 44.189339 0 0 1 366.970285 399.74277a44.546115 44.546115 0 0 1-18.19561-3.822607l-8.664576-3.822607-5.096809 8.154895a215.544074 215.544074 0 0 0-23.751133 57.237171l-2.344532 9.225225 8.868448 3.414863a44.240307 44.240307 0 0 1 0 82.721218l-8.868448 3.414863 2.344532 9.225225a216.869245 216.869245 0 0 0 23.700164 57.237171l5.09681 8.205863 8.715544-3.873575a44.495147 44.495147 0 0 1 18.19561-3.873575 44.240307 44.240307 0 0 1 40.264795 62.384948l-3.873575 8.715544 8.205863 5.09681A217.786671 217.786671 0 0 0 468.906476 722.676621l9.225225 2.344533 3.414862-8.868449a44.240307 44.240307 0 0 1 82.721219 0l3.414862 8.868449 9.225225-2.344533a216.920213 216.920213 0 0 0 57.237171-23.700164l8.205863-5.096809-3.873575-8.715545a44.189339 44.189339 0 0 1 40.315763-62.384948 44.597083 44.597083 0 0 1 18.19561 3.822607l8.664577 3.822607 5.096809-8.154895a215.595043 215.595043 0 0 0 23.190483-56.880394l2.344533-9.225226-8.868449-3.414862a44.036434 44.036434 0 0 1-28.389229-41.335125z m-53.465532 70.64178a43.475785 43.475785 0 0 0-12.487183-1.834852 44.495147 44.495147 0 0 0-32.823453 14.627844 52.395202 52.395202 0 0 0-11.875566 48.827435 133.077696 133.077696 0 0 1-25.076303 11.212981 44.800956 44.800956 0 0 0-80.886367 0 133.383505 133.383505 0 0 1-25.127271-11.212981 53.159723 53.159723 0 0 0-11.875566-48.776467 44.393211 44.393211 0 0 0-32.568613-14.678812 43.424817 43.424817 0 0 0-12.487183 1.834852 155.758499 155.758499 0 0 1-10.193619-27.064059 51.987457 51.987457 0 0 0 0-87.155442 154.586233 154.586233 0 0 1 10.193619-27.064059 43.475785 43.475785 0 0 0 12.487183 1.834851A44.495147 44.495147 0 0 0 445.410184 428.131999a52.395202 52.395202 0 0 0 11.875566-48.827435 132.771888 132.771888 0 0 1 25.076303-11.212981 44.800956 44.800956 0 0 0 80.886367 0 133.536409 133.536409 0 0 1 25.127271 11.212981 53.159723 53.159723 0 0 0 11.926534 48.827435 44.393211 44.393211 0 0 0 32.772485 14.678812 43.424817 43.424817 0 0 0 12.487183-1.834852 155.911403 155.911403 0 0 1 10.193619 27.064059 52.038425 52.038425 0 0 0 0 87.155443 154.892041 154.892041 0 0 1-10.193619 26.860186z" p-id="10534" fill="#bfbfbf"></path><path d="M522.83072 445.563088a65.850779 65.850779 0 1 0 65.850779 65.850779 65.952715 65.952715 0 0 0-65.850779-65.850779z" p-id="10535" fill="#bfbfbf"></path></svg>