<?xml version="1.0" standalone="no"?><!DOCTYPE svg PUBLIC "-//W3C//DTD SVG 1.1//EN" "http://www.w3.org/Graphics/SVG/1.1/DTD/svg11.dtd"><svg t="1603358311386" class="icon" viewBox="0 0 1024 1024" version="1.1" xmlns="http://www.w3.org/2000/svg" p-id="9962" xmlns:xlink="http://www.w3.org/1999/xlink" width="200" height="200"><defs><style type="text/css"></style></defs><path d="M957.74 423.35a20 20 0 0 0-3.25-7.53l-1.5-2.88a85.93 85.93 0 0 0-4-8.08 61.56 61.56 0 0 0-3.48-6.61c-1.74-3.47-3.57-6.92-4.86-9-2.5-5-5.9-10.71-8.43-14.91-2-3.25-4-6.43-7.09-11.3a484.85 484.85 0 0 0-35-47.66c-3.87-4.69-7.82-9.3-11.79-13.64-7.46-8.36-15.22-16.47-24-25.06l-6.7-5.9c-2.36-2.38-5.82-5.54-7.76-7.25-1-0.93-2.1-1.84-3.14-2.69-3.09-2.88-6.22-5.56-9.19-8-1.41-1.22-2.83-2.41-3.47-2.86-3.47-2.9-7-5.7-9.85-7.87a43.15 43.15 0 0 0-4.11-3.19c-3.43-2.72-6.94-5.31-10.52-7.83a36.43 36.43 0 0 0-3.76-2.68c-2-1.46-4.07-2.88-6.07-4.22l-3.61-2.47c-3.35-2.42-6.79-4.67-10-6.62-7.87-5.05-15.75-9.8-23.66-14.36-4.86-2.8-9.78-5.5-14.85-8.1-7.91-4.06-15.84-7.87-23.94-11.5l-7.62-3.35a16.77 16.77 0 0 0-3.07-1c-4.36-1.83-8.69-3.62-12.91-5.18l-23.76-8.78c-5.49-1.85-11-3.51-16.46-5.16-5.7-1.7-11.41-3.24-16.27-4.4-1.95-0.55-3.92-1-5.89-1.48l-2.73-0.69c-3.08-0.81-6.26-1.5-8.95-2q-16-3.47-31.52-5.76c-3.08-0.49-6.16-0.94-8.82-1.22a494.9 494.9 0 0 0-129.56-0.12c-3.1 0.34-6.18 0.79-8.92 1.24-11 1.58-21.5 3.51-31.4 5.7-2 0.4-4 0.85-6 1.34l-2.71 0.61c-3.18 0.71-6.27 1.42-8.41 2.07-5.63 1.36-11.18 2.94-16.93 4.56s-11.18 3.37-17 5.32l-23.27 8.6c-4.32 1.62-8.58 3.35-12.82 5.15a20.56 20.56 0 0 0-3.42 1.16l-7.6 3.35c-8 3.49-16 7.4-24.14 11.58-4.92 2.6-9.78 5.24-14.67 8-7.89 4.56-15.76 9.31-23.4 14.2-1.94 1.2-3.71 2.4-5.58 3.67l-3.79 2.52c-3.54 2.29-7.08 4.71-10.55 7.28a38 38 0 0 0-3.75 2.7c-3.58 2.5-7 5-9.3 6.92a52.61 52.61 0 0 0-4.59 3.49c-3.57 2.76-7.13 5.58-9.64 7.73-1.53 1.14-3 2.35-4.1 3.33-3.19 2.64-6.3 5.27-9.34 8.11-1.18 0.92-2.23 1.83-5.66 5-1.81 1.66-3.63 3.32-4.86 4.6l-7.59 7.1c-8 7.9-15.83 16-23.51 24.67l-4 4.61c-2.52 2.88-5.08 5.78-7.46 8.66a486.67 486.67 0 0 0-35 47.83l-1.82 2.78c-1.83 2.76-3.61 5.5-5.61 9.13l-7.34 12.9c-2 3.39-3.82 6.84-4.79 8.93a69.62 69.62 0 0 0-3.72 6.94c-0.93 1.74-2 3.83-2.83 5.62l-1.16 2.35a38.14 38.14 0 0 0-2.12 4.34c-0.36 0.65-1.43 2.93-1.72 3.62a20.75 20.75 0 0 0 11 26.88l400.69 174L390.41 655a20.84 20.84 0 0 0-12.24 13.81 21.08 21.08 0 0 0 3.5 18.26c1.79 2.4 3.6 4.77 6.06 7.73 0.76 0.9 1.53 1.77 2.31 2.62a21 21 0 0 0 2.24 2.9 156.53 156.53 0 0 0 19.51 17.72c1.6 1.21 3.22 2.39 3.95 2.84a81.78 81.78 0 0 0 8.63 5.58 48.57 48.57 0 0 0 6 3.53c1.72 0.93 3.39 1.82 4.65 2.45 3.39 1.79 6.87 3.39 10.21 4.81 2 0.87 3.94 1.66 5.12 2.07a111.26 111.26 0 0 0 11 3.81c3.63 1.16 7.42 2.22 10.62 3 1.45 0.38 2.57 0.63 3.89 0.87l2.62 0.59a45.27 45.27 0 0 0 9.05 1.56l5.3 0.71a21.47 21.47 0 0 0 2.77 0.18h35a21.39 21.39 0 0 0 2.78-0.18l6.72-0.91c1.84-0.29 4-0.71 7.54-1.4 2.23-0.39 4.36-0.81 6-1.26 3.81-0.89 7.59-1.95 10.6-2.92a94 94 0 0 0 10.33-3.55 59.07 59.07 0 0 0 6.15-2.42c3.56-1.52 7-3.12 9.31-4.36a35.91 35.91 0 0 0 4.91-2.56 36.89 36.89 0 0 0 5.26-3 92.44 92.44 0 0 0 9.22-5.9c1.32-0.86 2.48-1.69 4.66-3.29 1.48-1.08 2.88-2.19 5-4l3.3-2.76c1.78-1.48 3.53-3.06 4.53-4a36 36 0 0 0 3.4-3.35c1.3-1.16 2.53-2.4 3.38-3.33 1.76-1.87 3.34-3.63 5.19-5.84s3.67-4.45 5.34-6.76a21 21 0 0 0 1.43-2.33 20.81 20.81 0 0 0-9.86-30.28l-88.59-35.77L946 446.62a20.56 20.56 0 0 0 11.74-23.27z m-371.93 264a59.69 59.69 0 0 1-6.07 3.91c-0.52 0.29-4.39 2.5-4.87 2.82a26.73 26.73 0 0 1-3.15 1.63c-2.39 1.26-4.86 2.37-8 3.73a34.27 34.27 0 0 1-3.6 1.4 77.18 77.18 0 0 1-7.93 2.72c-2.63 0.83-5.37 1.6-8.72 2.41-1.12 0.29-2.19 0.47-3.31 0.69-0.1 0-2.2 0.41-2.29 0.43l-41.11 1.38-14.76-2.65c-2.75-0.65-5.51-1.42-8.72-2.43a81 81 0 0 1-8.12-2.82 72.28 72.28 0 0 1-3.45-1.4c-2.53-1.08-5-2.19-7.77-3.66l-3.65-1.92c-0.28-0.17-3.72-2.19-4-2.34a71.79 71.79 0 0 1-7.05-4.58c-0.88-0.57-1.7-1.22-2.35-1.71-1-0.79-2.06-1.6-3.07-2.43L513.34 651 592 682.75z m-74.48-97.19L113.26 417.28l0.26-0.45c1.31-2.61 2.68-5.25 4.5-8.33l7.6-13.4c1.39-2.53 2.64-4.4 3.9-6.29l2.15-3.3a448.25 448.25 0 0 1 32-43.69c2.16-2.61 4.44-5.19 6.68-7.75l4.13-4.73c6.83-7.71 14-15.11 21-22l7.76-7.28c1.29-1.3 2.63-2.5 5.48-5.12a20.13 20.13 0 0 1 2-1.74c0.63-0.47 1.24-1 1.83-1.54 2.62-2.5 5.31-4.77 8.36-7.31l3.11-2.51c3.06-2.58 6.21-5.08 10.14-8.16 0.56-0.47 1.16-0.93 3-2.23 3-2.38 6.07-4.63 10.3-7.73a26.09 26.09 0 0 0 2.24-1.46c2.93-2.21 5.94-4.28 9-6.21l9-6c7.35-4.7 14.7-9.13 21.93-13.31 4.36-2.47 8.8-4.91 13.11-7.16 7.25-3.71 14.5-7.26 21.76-10.47l5.08-2.23a18.9 18.9 0 0 0 3-1c4.5-1.9 9-3.79 13.83-5.6l21.92-8.09c4.95-1.66 9.91-3.25 15.1-4.73 5-1.42 10-2.84 16-4.32 2.23-0.63 4.47-1.14 6.77-1.64l8.14-1.83c9.5-2.11 19-3.83 29.31-5.34 2.39-0.4 4.79-0.73 7.61-1.05a453.13 453.13 0 0 1 119.55 0.06c2.38 0.26 4.77 0.59 7.44 1 9.76 1.47 19.36 3.21 29.6 5.42 2.31 0.43 4.61 1 6.86 1.52l8.29 2.12c5 1.2 10 2.54 15 4.06s10.1 3 14.89 4.65l22.4 8.28c4.58 1.7 9.09 3.59 13.61 5.51a20 20 0 0 0 2.71 0.9l5.21 2.29c7.29 3.29 14.6 6.78 21.85 10.49q6.64 3.43 13 7.12c7.34 4.26 14.7 8.69 22.32 13.56 2.65 1.64 5.3 3.36 7.86 5.19l4.6 3.19c1.74 1.15 3.57 2.39 6.59 4.46 0.62 0.55 1.27 1 1.94 1.54 3.14 2.17 6.21 4.42 10.36 7.65 0.66 0.47 1.3 0.95 2.63 2 3.15 2.43 6.3 5 10.24 8.2l2.52 2.09c2.74 2.27 5.42 4.54 8 7 0.55 0.5 1.26 1.09 1.85 1.56l2.58 2.27c1 0.83 3.32 3 5.82 5.46L826 307c7.4 7.24 14.51 14.71 21.51 22.54 3.65 4 7.16 8.09 10.65 12.31a449.58 449.58 0 0 1 33 45.13c1.87 2.94 3.73 5.86 5.59 8.93 2 3.24 4.72 7.79 7.42 13.1 1.41 2.38 2.7 4.83 4.59 8.46z" p-id="9963" fill="#bfbfbf"></path><path d="M588.51 285.42a20.77 20.77 0 0 0-20.78 20.77v151.43a17.9 17.9 0 0 1-35.79 0.28l0.56-41.42c0-0.37 0.21-0.68 0.2-1.05l-0.06-8.92 0.06-5a5.59 5.59 0 0 0-0.11-0.59l-0.65-85.48a59.36 59.36 0 1 0-118.71 0v151.4a20.78 20.78 0 0 0 41.55 0V315.41a17.81 17.81 0 1 1 35.61 0.16l0.69 90.7-0.69 51.35a59.45 59.45 0 1 0 118.9 0V306.19a20.77 20.77 0 0 0-20.78-20.77z" p-id="9964" fill="#bfbfbf"></path></svg>