<?xml version="1.0" standalone="no"?><!DOCTYPE svg PUBLIC "-//W3C//DTD SVG 1.1//EN" "http://www.w3.org/Graphics/SVG/1.1/DTD/svg11.dtd"><svg t="1603888180315" class="icon" viewBox="0 0 1024 1024" version="1.1" xmlns="http://www.w3.org/2000/svg" p-id="2790" xmlns:xlink="http://www.w3.org/1999/xlink" width="300" height="300"><defs><style type="text/css"></style></defs><path d="M630.568421 619.789474h-239.831579c-10.778947 0-18.863158 8.084211-18.863158 18.863158s8.084211 18.863158 18.863158 18.863157h239.831579c10.778947 0 18.863158-8.084211 18.863158-18.863157s-8.084211-18.863158-18.863158-18.863158z" fill="#bfbfbf" p-id="2791"></path><path d="M986.273684 714.105263l-78.147368-164.378947c-5.389474-13.473684-18.863158-21.557895-32.336842-21.557895H808.421053V115.873684c0-16.168421-13.473684-29.642105-29.642106-29.642105h-99.705263c-18.863158 0-32.336842 13.473684-32.336842 32.336842v24.252632h-48.505263v-24.252632c0-18.863158-13.473684-32.336842-32.336842-32.336842h-102.4c-18.863158 0-32.336842 13.473684-32.336842 32.336842v24.252632h-48.505263v-24.252632c0-18.863158-13.473684-32.336842-32.336843-32.336842H247.915789c-16.168421 0-29.642105 13.473684-29.642105 29.642105v414.989474H150.905263c-13.473684 0-26.947368 8.084211-32.336842 21.557895l-78.147368 164.378947c-2.694737 5.389474-2.694737 10.778947-2.694737 16.168421v177.852632c0 16.168421 13.473684 29.642105 29.642105 29.642105h164.378947c10.778947 0 21.557895-5.389474 29.642106-13.473684l37.726315-45.810527h431.157895l37.726316 48.505264c8.084211 8.084211 16.168421 13.473684 29.642105 13.473684h164.378948c16.168421 0 29.642105-13.473684 29.642105-29.642106v-177.852631c-2.694737-10.778947-2.694737-16.168421-5.389474-21.557895zM512 840.757895h-158.989474l21.557895-88.926316h269.473684l24.252632 88.926316H512z m137.431579-129.347369H369.178947l-97.010526-142.821052H749.136842l-99.705263 142.821052zM256 123.957895h86.231579v24.252631c0 18.863158 13.473684 32.336842 32.336842 32.336842h59.284211c18.863158 0 32.336842-13.473684 32.336842-32.336842v-24.252631h91.621052v24.252631c0 18.863158 13.473684 32.336842 32.336842 32.336842h59.284211c18.863158 0 32.336842-13.473684 32.336842-32.336842v-24.252631h86.231579v406.905263h-512V123.957895z m8.084211 730.273684l-37.726316 45.810526H72.757895v-169.768421l78.147368-161.68421h75.452632l113.178947 167.073684-26.947368 105.094737h-18.863158c-10.778947 0-21.557895 2.694737-29.642105 13.473684z m687.157894 45.810526h-153.6l-37.726316-48.505263c-8.084211-8.084211-16.168421-13.473684-29.642105-13.473684h-24.252631l-29.642106-105.094737 118.568421-167.073684h78.147369l78.147368 164.378947v169.768421z" fill="#bfbfbf" p-id="2792"></path><path d="M563.2 476.968421c24.252632-21.557895 32.336842-53.894737 29.642105-78.147368-2.694737-13.473684-8.084211-21.557895-18.863158-24.252632-8.084211-2.694737-16.168421 0-21.557894 2.694737l-2.694737 2.694737c-2.694737 2.694737-8.084211 8.084211-10.778948 8.08421 0 0 0-2.694737 2.694737-8.08421l2.694737-2.694737c5.389474-10.778947 18.863158-48.505263-32.336842-75.452632-5.389474-2.694737-10.778947-2.694737-16.168421 0-5.389474 2.694737-8.084211 8.084211-10.778947 13.473685 0 5.389474-2.694737 13.473684-2.694737 16.168421-2.694737 2.694737-10.778947 13.473684-16.168421 21.557894-10.778947 10.778947-18.863158 21.557895-24.252632 29.642106-8.084211 10.778947-10.778947 40.421053 0 64.673684 5.389474 16.168421 21.557895 35.031579 53.894737 43.115789 8.084211 2.694737 13.473684 2.694737 18.863158 2.694737 16.168421 2.694737 35.031579-2.694737 48.505263-16.168421z m-61.978947-18.863158c-13.473684-2.694737-21.557895-10.778947-26.947369-18.863158-5.389474-13.473684-2.694737-29.642105 0-32.336842 2.694737-5.389474 13.473684-16.168421 18.863158-24.252631 10.778947-13.473684 16.168421-18.863158 18.863158-24.252632 0 2.694737 0 5.389474-2.694737 8.084211v2.694736c-5.389474 10.778947-10.778947 21.557895-5.389474 40.421053 0 2.694737 2.694737 2.694737 2.694737 5.389474 10.778947 13.473684 24.252632 18.863158 32.336842 18.863158 5.389474 0 10.778947 0 13.473685-2.694737-2.694737 8.084211-8.084211 16.168421-13.473685 21.557894-10.778947 5.389474-24.252632 8.084211-37.726315 5.389474z" fill="#bfbfbf" p-id="2793"></path><path d="M417.684211 458.105263h-37.726316v-185.936842h264.08421V458.105263h-37.726316c-10.778947 0-18.863158 8.084211-18.863157 18.863158s8.084211 18.863158 18.863157 18.863158H646.736842c18.863158 0 35.031579-16.168421 35.031579-35.031579V269.473684c0-18.863158-16.168421-35.031579-35.031579-35.031579H377.263158c-18.863158 0-35.031579 16.168421-35.031579 35.031579v194.021053c0 18.863158 16.168421 35.031579 35.031579 35.031579h40.421053c10.778947 0 18.863158-8.084211 18.863157-18.863158s-8.084211-21.557895-18.863157-21.557895z" fill="#bfbfbf" p-id="2794"></path></svg>