<?xml version="1.0" standalone="no"?><!DOCTYPE svg PUBLIC "-//W3C//DTD SVG 1.1//EN" "http://www.w3.org/Graphics/SVG/1.1/DTD/svg11.dtd"><svg t="1603889282508" class="icon" viewBox="0 0 1024 1024" version="1.1" xmlns="http://www.w3.org/2000/svg" p-id="7697" xmlns:xlink="http://www.w3.org/1999/xlink" width="300" height="300"><defs><style type="text/css"></style></defs><path d="M893.09 599.18l-58.59-503A37.24 37.24 0 0 0 827.23 79l-0.43-0.55-0.59-0.73c-0.28-0.34-0.58-0.68-0.88-1l-0.19-0.22a37.08 37.08 0 0 0-27.53-12.22h-91c-0.87-0.06-1.75-0.1-2.64-0.1H229.66a37.65 37.65 0 0 0-40.75 29.52l-58.22 506A37.05 37.05 0 0 0 129 622l70.1 308.93a37.82 37.82 0 0 0 42.66 28.63l542 0.22a37.82 37.82 0 0 0 41.21-28.83L895 622a37.05 37.05 0 0 0-1.91-22.82zM757.89 885l-491.82-0.2L214.1 651h98.83l53.94 76.43a37.44 37.44 0 0 0 33 19.68h224.7A37.45 37.45 0 0 0 658 726.49L711.26 651h98.64z m-65.37-309a38.81 38.81 0 0 0-30.87 15.65l-56.75 80.47H419.32l-56.81-80.5a39.11 39.11 0 0 0-31-15.62H212.39l44.16-436.84H690c0.88 0.06 1.76 0.11 2.64 0.11h74.85L812.33 576z" fill="#bfbfbf" p-id="7698"></path><path d="M632 368H392a40 40 0 0 0-40 40 40 40 0 0 0 40 40h240a40 40 0 0 0 40-40 40 40 0 0 0-40-40z" fill="#bfbfbf" p-id="7699"></path></svg>